<?xml version="1.0" encoding="UTF-8"?>
<svg width="21px" height="19px" viewBox="0 0 21 19" version="1.1" xmlns="http://www.w3.org/2000/svg" xmlns:xlink="http://www.w3.org/1999/xlink">
    <title>Star</title>
    <g id="Splash" stroke="none" stroke-width="1" fill="none" fill-rule="evenodd">
        <g id="Medium" transform="translate(-359, -133)" fill="#F1ACAC">
            <g id="Group-2" transform="translate(320, 24)">
                <g id="Group-3" transform="translate(12, 107)">
                    <path d="M36.5693177,19.2392886 L33.7396287,20.7269442 C32.7619395,21.2409458 31.5526852,20.8650528 31.0386836,19.8873636 C30.8340054,19.4980427 30.7633761,19.0521065 30.8377298,18.6185912 L31.3781523,15.4676861 C31.4894282,14.818898 31.2743312,14.1568976 30.802959,13.6974233 L28.5136924,11.4659399 C27.7227253,10.6949375 27.7065407,9.42871095 28.4775431,8.63774379 C28.7845603,8.32277652 29.1868451,8.11780217 29.6221192,8.05455314 L32.7858078,7.59484228 C33.4372281,7.50018537 34.0003593,7.09104662 34.2916833,6.50075968 L35.7065278,3.6339715 C36.1953724,2.64346418 37.3946241,2.23678618 38.3851314,2.72563077 C38.7795566,2.92029125 39.0988117,3.23954629 39.2934722,3.6339715 L40.7083167,6.50075968 C40.9996407,7.09104662 41.5627719,7.50018537 42.2141922,7.59484228 L45.3778808,8.05455314 C46.4709705,8.21338838 47.2283334,9.22827408 47.0694982,10.3213638 C47.0062492,10.7566379 46.8012748,11.1589227 46.4863076,11.4659399 L44.197041,13.6974233 C43.7256688,14.1568976 43.5105718,14.818898 43.6218477,15.4676861 L44.1622702,18.6185912 C44.3489923,19.7072641 43.6178166,20.741176 42.5291437,20.927898 C42.0956285,21.0022517 41.6496923,20.9316223 41.2603713,20.7269442 L38.4306823,19.2392886 C37.8480342,18.9329724 37.1519658,18.9329724 36.5693177,19.2392886 Z" id="Star"></path>
                </g>
            </g>
        </g>
    </g>
</svg>