<?xml version="1.0" encoding="UTF-8"?>
<svg width="24px" height="24px" viewBox="0 0 24 24" version="1.1" xmlns="http://www.w3.org/2000/svg" xmlns:xlink="http://www.w3.org/1999/xlink">
    <title>search</title>
    <defs>
        <path d="M15.5,14 L14.7100001,14 L14.4300001,13.7300001 C15.4100001,12.5900001 16,11.11 16,9.50000001 C16,5.91000002 13.0900001,3.00000001 9.50000001,3.00000001 C5.91000002,3.00000001 3.00000001,5.91000002 3.00000001,9.50000001 C3.00000001,13.0900001 5.91000002,16 9.50000001,16 C11.11,16 12.5900001,15.4100001 13.7300001,14.4300001 L14,14.7100001 L14,15.5 L19,20.4900001 L20.4900001,19 L15.5,14 L15.5,14 Z M9.50000002,14 C7.01000003,14 5.00000002,11.99 5.00000002,9.50000002 C5.00000002,7.01000003 7.01000003,5.00000002 9.50000002,5.00000002 C11.99,5.00000002 14,7.01000003 14,9.50000002 C14,11.99 11.99,14 9.50000002,14 L9.50000002,14 Z" id="path-1"></path>
    </defs>
    <g id="Splash" stroke="none" stroke-width="1" fill="none" fill-rule="evenodd">
        <g id="Web" transform="translate(-952, -268)">
            <g id="Group-6" transform="translate(619, 259)">
                <g id="search" transform="translate(333, 9)">
                    <polygon id="Base" fill-rule="nonzero" points="0 0 24.0000001 0 24.0000001 24.0000001 0 24.0000001"></polygon>
                    <mask id="mask-2" fill="white">
                        <use xlink:href="#path-1"></use>
                    </mask>
                    <g id="Icon" fill-rule="nonzero"></g>
                    <rect id="↳-🎨-Color" fill="#080808" mask="url(#mask-2)" x="4.99999828e-08" y="4.9999926e-08" width="24" height="24"></rect>
                </g>
            </g>
        </g>
    </g>
</svg>